<?xml version="1.0" encoding="UTF-8" standalone="no"?>
<svg xmlns:dc="http://purl.org/dc/elements/1.1/" xmlns:cc="http://creativecommons.org/ns#" xmlns:rdf="http://www.w3.org/1999/02/22-rdf-syntax-ns#" xmlns:svg="http://www.w3.org/2000/svg" xmlns="http://www.w3.org/2000/svg" xmlns:sodipodi="http://sodipodi.sourceforge.net/DTD/sodipodi-0.dtd" xmlns:inkscape="http://www.inkscape.org/namespaces/inkscape" width="32" height="32" viewBox="0 0 32 32.000001" id="svg2" version="1.1" inkscape:version="0.91 r13725" sodipodi:docname="beer-party-celebration-july 4-independence-day-pub-american.svg">
  <defs id="defs4"/>
  <sodipodi:namedview id="base" pagecolor="#ffffff" bordercolor="#666666" borderopacity="1.0" inkscape:pageopacity="0.0" inkscape:pageshadow="2" inkscape:zoom="11.2" inkscape:cx="1.2908067" inkscape:cy="14.309401" inkscape:document-units="px" inkscape:current-layer="layer1" showgrid="false" units="px" inkscape:window-width="1366" inkscape:window-height="716" inkscape:window-x="-8" inkscape:window-y="-8" inkscape:window-maximized="1"/>
  
  <g inkscape:label="Layer 1" inkscape:groupmode="layer" id="layer1" transform="translate(0,-1020.3622)">
    <path style="color:#000000;font-style:normal;font-variant:normal;font-weight:normal;font-stretch:normal;font-size:medium;line-height:normal;font-family:sans-serif;text-indent:0;text-align:start;text-decoration:none;text-decoration-line:none;text-decoration-style:solid;text-decoration-color:#000000;letter-spacing:normal;word-spacing:normal;text-transform:none;direction:ltr;writing-mode:lr-tb;baseline-shift:baseline;text-anchor:start;white-space:normal;clip-rule:nonzero;display:inline;overflow:visible;visibility:visible;opacity:1;isolation:auto;mix-blend-mode:normal;color-interpolation:sRGB;color-interpolation-filters:linearRGB;solid-color:#000000;solid-opacity:1;fill:#000000;fill-opacity:1;fill-rule:nonzero;stroke:none;stroke-width:1.00157475;stroke-linecap:round;stroke-linejoin:round;stroke-miterlimit:4;stroke-dasharray:none;stroke-dashoffset:0;stroke-opacity:1;color-rendering:auto;image-rendering:auto;shape-rendering:auto;text-rendering:auto;enable-background:accumulate" d="m 20.00073,1022.8622 c -1.24185,0 -2.34186,0.5466 -3.10134,1.4844 -0.59068,-0.3281 -1.21773,-0.4838 -1.8983,-0.4844 -1.67828,0 -3.15286,1.0463 -3.73812,2.5835 -0.24966,-0.053 -0.45984,-0.083 -0.75961,-0.083 -6.7e-4,0 -0.001,0 -0.002,0 -0.96364,0 -1.84157,0.3924 -2.47443,1.0254 -0.47261,0.4726 0.23633,1.1816 0.70894,0.709 0.45276,-0.4529 1.07251,-0.7325 1.76549,-0.7325 0.31186,7e-4 0.61992,0.059 0.9101,0.1739 0.2843,0.1124 0.60212,-0.054 0.67182,-0.3516 0.31569,-1.361 1.52157,-2.3223 2.91776,-2.3223 0.62413,6e-4 1.23223,0.1957 1.7401,0.5586 0.23525,0.1685 0.56387,0.1031 0.71675,-0.1425 0.54707,-0.8803 1.50741,-1.4161 2.54279,-1.4161 1.66206,0 2.99783,1.3377 2.99783,3 -8e-5,0 0,0.015 0,0.016 -0.0162,0.3193 0.26667,0.5718 0.58199,0.5196 0.13964,-0.024 0.28066,-0.035 0.41989,-0.035 1.38596,0 2.49787,1.1137 2.49787,2.5 0,1.3863 -1.11194,2.4981 -2.49787,2.498 l -5.99957,0 c -0.27669,-6e-4 -0.50145,0.2233 -0.50191,0.5 l 0,2.5 c -10e-6,0.2853 -0.21287,0.5 -0.49802,0.5 -0.28513,0 -0.49997,-0.2147 -0.49996,-0.5 l 0,-2.5 c -4.6e-4,-0.2759 -0.22403,-0.4995 -0.49996,-0.5 l -1.99986,0 c -0.27669,-6e-4 -0.50145,0.2233 -0.50191,0.5 l 0,4.5 c -2e-5,0.2853 -0.21289,0.5 -0.49802,0.5 -0.28515,0 -0.49998,-0.2148 -0.49996,-0.5 l 0,-4.5 c -4.6e-4,-0.2759 -0.22403,-0.4995 -0.49996,-0.5 l -1.4999,0 c -0.69283,2e-4 -1.31268,-0.2795 -1.76549,-0.7324 -0.47261,-0.4727 -1.18155,0.2363 -0.70894,0.709 0.63282,0.6329 1.51064,1.0256 2.47443,1.0254 l 0.99993,0 -0.002,3.998 c -5e-5,0.8228 0.67915,1.502 1.50184,1.502 0.82269,0 1.49985,-0.6793 1.49989,-1.502 l 0,-3.998 0.99798,0 0,1.998 c -3e-5,0.8228 0.67915,1.502 1.50184,1.502 0.82269,0 1.49989,-0.6792 1.4999,-1.502 l 0,-1.998 5.4996,0 c 1.92727,10e-5 3.49975,-1.5725 3.49975,-3.5 0,-1.9275 -1.57251,-3.502 -3.49975,-3.502 -6.7e-4,0 -0.001,0 -0.002,0 -0.033,10e-5 0.001,10e-4 -0.0314,0 -0.25475,-1.961 -1.93809,-3.5023 -3.96639,-3.5023 z" id="path7343-2-7" inkscape:connector-curvature="0" sodipodi:nodetypes="ccccccccccccccsccccsccccsccccccscccccccccsccccscccsccccc"/>
    <path style="color:#000000;font-style:normal;font-variant:normal;font-weight:normal;font-stretch:normal;font-size:medium;line-height:normal;font-family:sans-serif;text-indent:0;text-align:start;text-decoration:none;text-decoration-line:none;text-decoration-style:solid;text-decoration-color:#000000;letter-spacing:normal;word-spacing:normal;text-transform:none;direction:ltr;writing-mode:lr-tb;baseline-shift:baseline;text-anchor:start;white-space:normal;clip-rule:nonzero;display:inline;overflow:visible;visibility:visible;opacity:1;isolation:auto;mix-blend-mode:normal;color-interpolation:sRGB;color-interpolation-filters:linearRGB;solid-color:#000000;solid-opacity:1;fill:#000000;fill-opacity:1;fill-rule:evenodd;stroke:none;stroke-width:1px;stroke-linecap:butt;stroke-linejoin:miter;stroke-miterlimit:4;stroke-dasharray:none;stroke-dashoffset:0;stroke-opacity:1;color-rendering:auto;image-rendering:auto;shape-rendering:auto;text-rendering:auto;enable-background:accumulate" d="m 8.50156,1032.3622 0,17.5 c 0,1.3748 1.12514,2.5 2.49982,2.5 l 11.99913,0 c 1.37468,0 2.49982,-1.1252 2.49982,-2.5 l 0,-17.5 -0.99993,0 0,17.5 c 0,0.8344 -0.66559,1.5 -1.49989,1.5 l -11.99913,0 c -0.8343,0 -1.49989,-0.6656 -1.49989,-1.5 l 0,-17.5 z" id="path7331-7-1-2" inkscape:connector-curvature="0"/>
    <path style="color:#000000;font-style:normal;font-variant:normal;font-weight:normal;font-stretch:normal;font-size:medium;line-height:normal;font-family:sans-serif;text-indent:0;text-align:start;text-decoration:none;text-decoration-line:none;text-decoration-style:solid;text-decoration-color:#000000;letter-spacing:normal;word-spacing:normal;text-transform:none;direction:ltr;writing-mode:lr-tb;baseline-shift:baseline;text-anchor:start;white-space:normal;clip-rule:nonzero;display:inline;overflow:visible;visibility:visible;opacity:1;isolation:auto;mix-blend-mode:normal;color-interpolation:sRGB;color-interpolation-filters:linearRGB;solid-color:#000000;solid-opacity:1;fill:#000000;fill-opacity:1;fill-rule:evenodd;stroke:none;stroke-width:1px;stroke-linecap:butt;stroke-linejoin:miter;stroke-miterlimit:4;stroke-dasharray:none;stroke-dashoffset:0;stroke-opacity:1;color-rendering:auto;image-rendering:auto;shape-rendering:auto;text-rendering:auto;enable-background:accumulate" d="m 26.00029,1035.3622 0,1 1.4999,0 c 0.83429,0 1.49989,0.6657 1.49989,1.5 l 0,8 c 0,0.8343 -0.6656,1.5 -1.49989,1.5 l -1.4999,0 0,1 1.4999,0 c 1.37469,0 2.49981,-1.1252 2.49981,-2.5 l 0,-8 c 0,-1.3748 -1.12512,-2.5 -2.49981,-2.5 z" id="path7336-0-1-2" inkscape:connector-curvature="0"/>
    <path style="color:#000000;font-style:normal;font-variant:normal;font-weight:normal;font-stretch:normal;font-size:medium;line-height:normal;font-family:sans-serif;text-indent:0;text-align:start;text-decoration:none;text-decoration-line:none;text-decoration-style:solid;text-decoration-color:#000000;letter-spacing:normal;word-spacing:normal;text-transform:none;direction:ltr;writing-mode:lr-tb;baseline-shift:baseline;text-anchor:start;white-space:normal;clip-rule:nonzero;display:inline;overflow:visible;visibility:visible;opacity:1;isolation:auto;mix-blend-mode:normal;color-interpolation:sRGB;color-interpolation-filters:linearRGB;solid-color:#000000;solid-opacity:1;fill:#000000;fill-opacity:1;fill-rule:evenodd;stroke:none;stroke-width:1px;stroke-linecap:round;stroke-linejoin:round;stroke-miterlimit:4;stroke-dasharray:none;stroke-dashoffset:0;stroke-opacity:1;color-rendering:auto;image-rendering:auto;shape-rendering:auto;text-rendering:auto;enable-background:accumulate" d="m 16.99313,1038.3622 a 0.50001387,0.50005 0 0 0 -0.49215,0.5078 l 0,9.4863 a 0.50001387,0.50005 0 1 0 0.99993,0 l 0,-9.4863 a 0.50001387,0.50005 0 0 0 -0.50778,-0.5078 z" id="path48131-02" inkscape:connector-curvature="0"/>
    <path style="color:#000000;font-style:normal;font-variant:normal;font-weight:normal;font-stretch:normal;font-size:medium;line-height:normal;font-family:sans-serif;text-indent:0;text-align:start;text-decoration:none;text-decoration-line:none;text-decoration-style:solid;text-decoration-color:#000000;letter-spacing:normal;word-spacing:normal;text-transform:none;direction:ltr;writing-mode:lr-tb;baseline-shift:baseline;text-anchor:start;white-space:normal;clip-rule:nonzero;display:inline;overflow:visible;visibility:visible;opacity:1;isolation:auto;mix-blend-mode:normal;color-interpolation:sRGB;color-interpolation-filters:linearRGB;solid-color:#000000;solid-opacity:1;fill:#000000;fill-opacity:1;fill-rule:evenodd;stroke:none;stroke-width:0.99999988px;stroke-linecap:round;stroke-linejoin:round;stroke-miterlimit:4;stroke-dasharray:none;stroke-dashoffset:0;stroke-opacity:1;color-rendering:auto;image-rendering:auto;shape-rendering:auto;text-rendering:auto;enable-background:accumulate" d="m 12.99342,1040.3622 a 0.50001381,0.50004994 0 0 0 -0.49215,0.5078 l 0,7.4863 a 0.50001381,0.50004994 0 1 0 0.99993,0 l 0,-7.4863 a 0.50001381,0.50004994 0 0 0 -0.50778,-0.5078 z" id="path48311-8" inkscape:connector-curvature="0"/>
    <path style="color:#000000;font-style:normal;font-variant:normal;font-weight:normal;font-stretch:normal;font-size:medium;line-height:normal;font-family:sans-serif;text-indent:0;text-align:start;text-decoration:none;text-decoration-line:none;text-decoration-style:solid;text-decoration-color:#000000;letter-spacing:normal;word-spacing:normal;text-transform:none;direction:ltr;writing-mode:lr-tb;baseline-shift:baseline;text-anchor:start;white-space:normal;clip-rule:nonzero;display:inline;overflow:visible;visibility:visible;opacity:1;isolation:auto;mix-blend-mode:normal;color-interpolation:sRGB;color-interpolation-filters:linearRGB;solid-color:#000000;solid-opacity:1;fill:#000000;fill-opacity:1;fill-rule:evenodd;stroke:none;stroke-width:1px;stroke-linecap:round;stroke-linejoin:round;stroke-miterlimit:4;stroke-dasharray:none;stroke-dashoffset:0;stroke-opacity:1;color-rendering:auto;image-rendering:auto;shape-rendering:auto;text-rendering:auto;enable-background:accumulate" d="m 20.99285,1035.3622 a 0.50001387,0.50005 0 0 0 -0.49216,0.5078 l 0,12.4863 a 0.50001387,0.50005 0 1 0 0.99993,0 l 0,-12.4863 a 0.50001387,0.50005 0 0 0 -0.50777,-0.5078 z" id="path48313-2" inkscape:connector-curvature="0"/>
    <path style="color:#000000;font-style:normal;font-variant:normal;font-weight:normal;font-stretch:normal;font-size:medium;line-height:normal;font-family:sans-serif;text-indent:0;text-align:start;text-decoration:none;text-decoration-line:none;text-decoration-style:solid;text-decoration-color:#000000;letter-spacing:normal;word-spacing:normal;text-transform:none;direction:ltr;writing-mode:lr-tb;baseline-shift:baseline;text-anchor:start;white-space:normal;clip-rule:nonzero;display:inline;overflow:visible;visibility:visible;opacity:1;isolation:auto;mix-blend-mode:normal;color-interpolation:sRGB;color-interpolation-filters:linearRGB;solid-color:#000000;solid-opacity:1;fill:#000000;fill-opacity:1;fill-rule:evenodd;stroke:none;stroke-width:1px;stroke-linecap:round;stroke-linejoin:round;stroke-miterlimit:4;stroke-dasharray:none;stroke-dashoffset:0;stroke-opacity:1;color-rendering:auto;image-rendering:auto;shape-rendering:auto;text-rendering:auto;enable-background:accumulate" d="m 9.49368,1022.3622 a 0.50001384,0.50004997 0 0 0 -0.49216,0.5078 l 0,1.0332 a 0.50001384,0.50004997 0 1 0 0.99993,0 l 0,-1.0332 a 0.50001384,0.50004997 0 0 0 -0.50777,-0.5078 z" id="path14729-3-7-3" inkscape:connector-curvature="0"/>
    <path style="color:#000000;font-style:normal;font-variant:normal;font-weight:normal;font-stretch:normal;font-size:medium;line-height:normal;font-family:sans-serif;text-indent:0;text-align:start;text-decoration:none;text-decoration-line:none;text-decoration-style:solid;text-decoration-color:#000000;letter-spacing:normal;word-spacing:normal;text-transform:none;direction:ltr;writing-mode:lr-tb;baseline-shift:baseline;text-anchor:start;white-space:normal;clip-rule:nonzero;display:inline;overflow:visible;visibility:visible;opacity:1;isolation:auto;mix-blend-mode:normal;color-interpolation:sRGB;color-interpolation-filters:linearRGB;solid-color:#000000;solid-opacity:1;fill:#000000;fill-opacity:1;fill-rule:evenodd;stroke:none;stroke-width:1px;stroke-linecap:round;stroke-linejoin:round;stroke-miterlimit:4;stroke-dasharray:none;stroke-dashoffset:0;stroke-opacity:1;color-rendering:auto;image-rendering:auto;shape-rendering:auto;text-rendering:auto;enable-background:accumulate" d="m 8.51523,1023.0848 a 0.50001384,0.50004997 0 0 0 -0.16014,0.9786 l 0.98821,0.3183 a 0.50001384,0.50004997 0 1 0 0.30662,-0.9511 l -0.98821,-0.3184 a 0.50001384,0.50004997 0 0 0 -0.14648,-0.027 z" id="path14731-1-3-3" inkscape:connector-curvature="0"/>
    <path style="color:#000000;font-style:normal;font-variant:normal;font-weight:normal;font-stretch:normal;font-size:medium;line-height:normal;font-family:sans-serif;text-indent:0;text-align:start;text-decoration:none;text-decoration-line:none;text-decoration-style:solid;text-decoration-color:#000000;letter-spacing:normal;word-spacing:normal;text-transform:none;direction:ltr;writing-mode:lr-tb;baseline-shift:baseline;text-anchor:start;white-space:normal;clip-rule:nonzero;display:inline;overflow:visible;visibility:visible;opacity:1;isolation:auto;mix-blend-mode:normal;color-interpolation:sRGB;color-interpolation-filters:linearRGB;solid-color:#000000;solid-opacity:1;fill:#000000;fill-opacity:1;fill-rule:evenodd;stroke:none;stroke-width:1px;stroke-linecap:round;stroke-linejoin:round;stroke-miterlimit:4;stroke-dasharray:none;stroke-dashoffset:0;stroke-opacity:1;color-rendering:auto;image-rendering:auto;shape-rendering:auto;text-rendering:auto;enable-background:accumulate" d="m 9.51126,1023.4071 a 0.50001384,0.50004997 0 0 0 -0.41599,0.211 l -0.61129,0.8359 a 0.50001384,0.50004997 0 1 0 0.80658,0.5898 l 0.61129,-0.8359 a 0.50001384,0.50004997 0 0 0 -0.39059,-0.8008 z" id="path14733-2-3-9" inkscape:connector-curvature="0"/>
    <path style="color:#000000;font-style:normal;font-variant:normal;font-weight:normal;font-stretch:normal;font-size:medium;line-height:normal;font-family:sans-serif;text-indent:0;text-align:start;text-decoration:none;text-decoration-line:none;text-decoration-style:solid;text-decoration-color:#000000;letter-spacing:normal;word-spacing:normal;text-transform:none;direction:ltr;writing-mode:lr-tb;baseline-shift:baseline;text-anchor:start;white-space:normal;clip-rule:nonzero;display:inline;overflow:visible;visibility:visible;opacity:1;isolation:auto;mix-blend-mode:normal;color-interpolation:sRGB;color-interpolation-filters:linearRGB;solid-color:#000000;solid-opacity:1;fill:#000000;fill-opacity:1;fill-rule:evenodd;stroke:none;stroke-width:1px;stroke-linecap:round;stroke-linejoin:round;stroke-miterlimit:4;stroke-dasharray:none;stroke-dashoffset:0;stroke-opacity:1;color-rendering:auto;image-rendering:auto;shape-rendering:auto;text-rendering:auto;enable-background:accumulate" d="m 9.47805,1023.4071 a 0.50001384,0.50004997 0 0 0 -0.37692,0.8008 l 0.61128,0.8359 a 0.50001384,0.50004997 0 1 0 0.80658,-0.5898 l -0.61128,-0.8359 a 0.50001384,0.50004997 0 0 0 -0.42966,-0.211 z" id="path14735-0-6-3" inkscape:connector-curvature="0"/>
    <path style="color:#000000;font-style:normal;font-variant:normal;font-weight:normal;font-stretch:normal;font-size:medium;line-height:normal;font-family:sans-serif;text-indent:0;text-align:start;text-decoration:none;text-decoration-line:none;text-decoration-style:solid;text-decoration-color:#000000;letter-spacing:normal;word-spacing:normal;text-transform:none;direction:ltr;writing-mode:lr-tb;baseline-shift:baseline;text-anchor:start;white-space:normal;clip-rule:nonzero;display:inline;overflow:visible;visibility:visible;opacity:1;isolation:auto;mix-blend-mode:normal;color-interpolation:sRGB;color-interpolation-filters:linearRGB;solid-color:#000000;solid-opacity:1;fill:#000000;fill-opacity:1;fill-rule:evenodd;stroke:none;stroke-width:1px;stroke-linecap:round;stroke-linejoin:round;stroke-miterlimit:4;stroke-dasharray:none;stroke-dashoffset:0;stroke-opacity:1;color-rendering:auto;image-rendering:auto;shape-rendering:auto;text-rendering:auto;enable-background:accumulate" d="m 10.52289,1023.0848 a 0.50001384,0.50004997 0 0 0 -0.18162,0.027 l -0.98821,0.3184 a 0.50001384,0.50004997 0 1 0 0.30661,0.9512 l 0.98821,-0.3184 a 0.50001384,0.50004997 0 0 0 -0.12499,-0.9785 z" id="path14737-2-9-5" inkscape:connector-curvature="0"/>
    <path style="color:#000000;font-style:normal;font-variant:normal;font-weight:normal;font-stretch:normal;font-size:medium;line-height:normal;font-family:sans-serif;text-indent:0;text-align:start;text-decoration:none;text-decoration-line:none;text-decoration-style:solid;text-decoration-color:#000000;letter-spacing:normal;word-spacing:normal;text-transform:none;direction:ltr;writing-mode:lr-tb;baseline-shift:baseline;text-anchor:start;white-space:normal;clip-rule:nonzero;display:inline;overflow:visible;visibility:visible;opacity:1;isolation:auto;mix-blend-mode:normal;color-interpolation:sRGB;color-interpolation-filters:linearRGB;solid-color:#000000;solid-opacity:1;fill:#000000;fill-opacity:1;fill-rule:evenodd;stroke:none;stroke-width:1px;stroke-linecap:round;stroke-linejoin:round;stroke-miterlimit:4;stroke-dasharray:none;stroke-dashoffset:0;stroke-opacity:1;color-rendering:auto;image-rendering:auto;shape-rendering:auto;text-rendering:auto;enable-background:accumulate" d="m 14.49136,1026.5634 a 0.50001384,0.50004997 0 0 0 -0.49411,0.5078 l 0,1.0332 a 0.50001384,0.50004997 0 1 0 0.99993,0 l 0,-1.0332 a 0.50001384,0.50004997 0 0 0 -0.50582,-0.5078 z" id="path14765-1-2-5" inkscape:connector-curvature="0"/>
    <path style="color:#000000;font-style:normal;font-variant:normal;font-weight:normal;font-stretch:normal;font-size:medium;line-height:normal;font-family:sans-serif;text-indent:0;text-align:start;text-decoration:none;text-decoration-line:none;text-decoration-style:solid;text-decoration-color:#000000;letter-spacing:normal;word-spacing:normal;text-transform:none;direction:ltr;writing-mode:lr-tb;baseline-shift:baseline;text-anchor:start;white-space:normal;clip-rule:nonzero;display:inline;overflow:visible;visibility:visible;opacity:1;isolation:auto;mix-blend-mode:normal;color-interpolation:sRGB;color-interpolation-filters:linearRGB;solid-color:#000000;solid-opacity:1;fill:#000000;fill-opacity:1;fill-rule:evenodd;stroke:none;stroke-width:1px;stroke-linecap:round;stroke-linejoin:round;stroke-miterlimit:4;stroke-dasharray:none;stroke-dashoffset:0;stroke-opacity:1;color-rendering:auto;image-rendering:auto;shape-rendering:auto;text-rendering:auto;enable-background:accumulate" d="m 13.51097,1027.286 a 0.50001384,0.50004997 0 0 0 -0.16015,0.9785 l 0.98821,0.3184 a 0.50001384,0.50004997 0 1 0 0.30856,-0.9512 l -0.9882,-0.3203 a 0.50001384,0.50004997 0 0 0 -0.14842,-0.025 z" id="path14767-1-0-0" inkscape:connector-curvature="0"/>
    <path style="color:#000000;font-style:normal;font-variant:normal;font-weight:normal;font-stretch:normal;font-size:medium;line-height:normal;font-family:sans-serif;text-indent:0;text-align:start;text-decoration:none;text-decoration-line:none;text-decoration-style:solid;text-decoration-color:#000000;letter-spacing:normal;word-spacing:normal;text-transform:none;direction:ltr;writing-mode:lr-tb;baseline-shift:baseline;text-anchor:start;white-space:normal;clip-rule:nonzero;display:inline;overflow:visible;visibility:visible;opacity:1;isolation:auto;mix-blend-mode:normal;color-interpolation:sRGB;color-interpolation-filters:linearRGB;solid-color:#000000;solid-opacity:1;fill:#000000;fill-opacity:1;fill-rule:evenodd;stroke:none;stroke-width:1px;stroke-linecap:round;stroke-linejoin:round;stroke-miterlimit:4;stroke-dasharray:none;stroke-dashoffset:0;stroke-opacity:1;color-rendering:auto;image-rendering:auto;shape-rendering:auto;text-rendering:auto;enable-background:accumulate" d="m 14.45816,1027.6083 a 0.50001384,0.50004997 0 0 0 -0.36717,0.209 l -0.60932,0.8359 a 0.50001384,0.50004997 0 1 0 0.80658,0.5899 l 0.61129,-0.836 a 0.50001384,0.50004997 0 0 0 -0.44138,-0.7988 z" id="path14769-5-1-6" inkscape:connector-curvature="0"/>
    <path style="color:#000000;font-style:normal;font-variant:normal;font-weight:normal;font-stretch:normal;font-size:medium;line-height:normal;font-family:sans-serif;text-indent:0;text-align:start;text-decoration:none;text-decoration-line:none;text-decoration-style:solid;text-decoration-color:#000000;letter-spacing:normal;word-spacing:normal;text-transform:none;direction:ltr;writing-mode:lr-tb;baseline-shift:baseline;text-anchor:start;white-space:normal;clip-rule:nonzero;display:inline;overflow:visible;visibility:visible;opacity:1;isolation:auto;mix-blend-mode:normal;color-interpolation:sRGB;color-interpolation-filters:linearRGB;solid-color:#000000;solid-opacity:1;fill:#000000;fill-opacity:1;fill-rule:evenodd;stroke:none;stroke-width:1px;stroke-linecap:round;stroke-linejoin:round;stroke-miterlimit:4;stroke-dasharray:none;stroke-dashoffset:0;stroke-opacity:1;color-rendering:auto;image-rendering:auto;shape-rendering:auto;text-rendering:auto;enable-background:accumulate" d="m 14.47379,1027.6083 a 0.50001384,0.50004997 0 0 0 -0.37694,0.7988 l 0.61129,0.836 a 0.50001384,0.50004997 0 1 0 0.80658,-0.5899 l -0.60932,-0.8359 a 0.50001384,0.50004997 0 0 0 -0.43161,-0.209 z" id="path14771-1-9-6" inkscape:connector-curvature="0"/>
    <path style="color:#000000;font-style:normal;font-variant:normal;font-weight:normal;font-stretch:normal;font-size:medium;line-height:normal;font-family:sans-serif;text-indent:0;text-align:start;text-decoration:none;text-decoration-line:none;text-decoration-style:solid;text-decoration-color:#000000;letter-spacing:normal;word-spacing:normal;text-transform:none;direction:ltr;writing-mode:lr-tb;baseline-shift:baseline;text-anchor:start;white-space:normal;clip-rule:nonzero;display:inline;overflow:visible;visibility:visible;opacity:1;isolation:auto;mix-blend-mode:normal;color-interpolation:sRGB;color-interpolation-filters:linearRGB;solid-color:#000000;solid-opacity:1;fill:#000000;fill-opacity:1;fill-rule:evenodd;stroke:none;stroke-width:1px;stroke-linecap:round;stroke-linejoin:round;stroke-miterlimit:4;stroke-dasharray:none;stroke-dashoffset:0;stroke-opacity:1;color-rendering:auto;image-rendering:auto;shape-rendering:auto;text-rendering:auto;enable-background:accumulate" d="m 15.4698,1027.286 a 0.50001384,0.50004997 0 0 0 -0.1328,0.025 l -0.9882,0.3203 a 0.50001384,0.50004997 0 1 0 0.30856,0.9512 l 0.98821,-0.3183 a 0.50001384,0.50004997 0 0 0 -0.17577,-0.9786 z" id="path14773-7-2-9" inkscape:connector-curvature="0"/>
    <path style="color:#000000;font-style:normal;font-variant:normal;font-weight:normal;font-stretch:normal;font-size:medium;line-height:normal;font-family:sans-serif;text-indent:0;text-align:start;text-decoration:none;text-decoration-line:none;text-decoration-style:solid;text-decoration-color:#000000;letter-spacing:normal;word-spacing:normal;text-transform:none;direction:ltr;writing-mode:lr-tb;baseline-shift:baseline;text-anchor:start;white-space:normal;clip-rule:nonzero;display:inline;overflow:visible;visibility:visible;opacity:1;isolation:auto;mix-blend-mode:normal;color-interpolation:sRGB;color-interpolation-filters:linearRGB;solid-color:#000000;solid-opacity:1;fill:#000000;fill-opacity:1;fill-rule:evenodd;stroke:none;stroke-width:1px;stroke-linecap:round;stroke-linejoin:round;stroke-miterlimit:4;stroke-dasharray:none;stroke-dashoffset:0;stroke-opacity:1;color-rendering:auto;image-rendering:auto;shape-rendering:auto;text-rendering:auto;enable-background:accumulate" d="m 3.49411,1024.3622 a 0.50001384,0.50004997 0 0 0 -0.49215,0.5078 l 0,1.0332 a 0.50001384,0.50004997 0 1 0 0.99992,0 l 0,-1.0332 a 0.50001384,0.50004997 0 0 0 -0.50777,-0.5078 z" id="path14777-8-1-1" inkscape:connector-curvature="0"/>
    <path style="color:#000000;font-style:normal;font-variant:normal;font-weight:normal;font-stretch:normal;font-size:medium;line-height:normal;font-family:sans-serif;text-indent:0;text-align:start;text-decoration:none;text-decoration-line:none;text-decoration-style:solid;text-decoration-color:#000000;letter-spacing:normal;word-spacing:normal;text-transform:none;direction:ltr;writing-mode:lr-tb;baseline-shift:baseline;text-anchor:start;white-space:normal;clip-rule:nonzero;display:inline;overflow:visible;visibility:visible;opacity:1;isolation:auto;mix-blend-mode:normal;color-interpolation:sRGB;color-interpolation-filters:linearRGB;solid-color:#000000;solid-opacity:1;fill:#000000;fill-opacity:1;fill-rule:evenodd;stroke:none;stroke-width:1px;stroke-linecap:round;stroke-linejoin:round;stroke-miterlimit:4;stroke-dasharray:none;stroke-dashoffset:0;stroke-opacity:1;color-rendering:auto;image-rendering:auto;shape-rendering:auto;text-rendering:auto;enable-background:accumulate" d="m 2.51566,1025.0849 a 0.50001384,0.50004997 0 0 0 -0.16014,0.9785 l 0.98821,0.3183 a 0.50001384,0.50004997 0 1 0 0.30662,-0.9511 l -0.98821,-0.3184 a 0.50001384,0.50004997 0 0 0 -0.14648,-0.027 z" id="path14779-67-7-5" inkscape:connector-curvature="0"/>
    <path style="color:#000000;font-style:normal;font-variant:normal;font-weight:normal;font-stretch:normal;font-size:medium;line-height:normal;font-family:sans-serif;text-indent:0;text-align:start;text-decoration:none;text-decoration-line:none;text-decoration-style:solid;text-decoration-color:#000000;letter-spacing:normal;word-spacing:normal;text-transform:none;direction:ltr;writing-mode:lr-tb;baseline-shift:baseline;text-anchor:start;white-space:normal;clip-rule:nonzero;display:inline;overflow:visible;visibility:visible;opacity:1;isolation:auto;mix-blend-mode:normal;color-interpolation:sRGB;color-interpolation-filters:linearRGB;solid-color:#000000;solid-opacity:1;fill:#000000;fill-opacity:1;fill-rule:evenodd;stroke:none;stroke-width:1px;stroke-linecap:round;stroke-linejoin:round;stroke-miterlimit:4;stroke-dasharray:none;stroke-dashoffset:0;stroke-opacity:1;color-rendering:auto;image-rendering:auto;shape-rendering:auto;text-rendering:auto;enable-background:accumulate" d="m 3.51169,1025.4071 a 0.50001384,0.50004997 0 0 0 -0.41599,0.211 l -0.61129,0.8359 a 0.50001384,0.50004997 0 1 0 0.80659,0.5898 l 0.61128,-0.8359 a 0.50001384,0.50004997 0 0 0 -0.39059,-0.8008 z" id="path14781-4-4-5" inkscape:connector-curvature="0"/>
    <path style="color:#000000;font-style:normal;font-variant:normal;font-weight:normal;font-stretch:normal;font-size:medium;line-height:normal;font-family:sans-serif;text-indent:0;text-align:start;text-decoration:none;text-decoration-line:none;text-decoration-style:solid;text-decoration-color:#000000;letter-spacing:normal;word-spacing:normal;text-transform:none;direction:ltr;writing-mode:lr-tb;baseline-shift:baseline;text-anchor:start;white-space:normal;clip-rule:nonzero;display:inline;overflow:visible;visibility:visible;opacity:1;isolation:auto;mix-blend-mode:normal;color-interpolation:sRGB;color-interpolation-filters:linearRGB;solid-color:#000000;solid-opacity:1;fill:#000000;fill-opacity:1;fill-rule:evenodd;stroke:none;stroke-width:1px;stroke-linecap:round;stroke-linejoin:round;stroke-miterlimit:4;stroke-dasharray:none;stroke-dashoffset:0;stroke-opacity:1;color-rendering:auto;image-rendering:auto;shape-rendering:auto;text-rendering:auto;enable-background:accumulate" d="m 3.47848,1025.4071 a 0.50001384,0.50004997 0 0 0 -0.37692,0.8008 l 0.61128,0.8359 a 0.50001384,0.50004997 0 1 0 0.80659,-0.5898 l -0.61129,-0.8359 a 0.50001384,0.50004997 0 0 0 -0.42966,-0.211 z" id="path14783-6-8-8" inkscape:connector-curvature="0"/>
    <path style="color:#000000;font-style:normal;font-variant:normal;font-weight:normal;font-stretch:normal;font-size:medium;line-height:normal;font-family:sans-serif;text-indent:0;text-align:start;text-decoration:none;text-decoration-line:none;text-decoration-style:solid;text-decoration-color:#000000;letter-spacing:normal;word-spacing:normal;text-transform:none;direction:ltr;writing-mode:lr-tb;baseline-shift:baseline;text-anchor:start;white-space:normal;clip-rule:nonzero;display:inline;overflow:visible;visibility:visible;opacity:1;isolation:auto;mix-blend-mode:normal;color-interpolation:sRGB;color-interpolation-filters:linearRGB;solid-color:#000000;solid-opacity:1;fill:#000000;fill-opacity:1;fill-rule:evenodd;stroke:none;stroke-width:1px;stroke-linecap:round;stroke-linejoin:round;stroke-miterlimit:4;stroke-dasharray:none;stroke-dashoffset:0;stroke-opacity:1;color-rendering:auto;image-rendering:auto;shape-rendering:auto;text-rendering:auto;enable-background:accumulate" d="m 4.52333,1025.0849 a 0.50001384,0.50004997 0 0 0 -0.18163,0.027 l -0.98821,0.3183 a 0.50001384,0.50004997 0 1 0 0.30662,0.9512 l 0.98821,-0.3184 a 0.50001384,0.50004997 0 0 0 -0.12499,-0.9785 z" id="path14785-5-1-5" inkscape:connector-curvature="0"/>
    <path style="color:#000000;font-style:normal;font-variant:normal;font-weight:normal;font-stretch:normal;font-size:medium;line-height:normal;font-family:sans-serif;text-indent:0;text-align:start;text-decoration:none;text-decoration-line:none;text-decoration-style:solid;text-decoration-color:#000000;letter-spacing:normal;word-spacing:normal;text-transform:none;direction:ltr;writing-mode:lr-tb;baseline-shift:baseline;text-anchor:start;white-space:normal;clip-rule:nonzero;display:inline;overflow:visible;visibility:visible;opacity:1;isolation:auto;mix-blend-mode:normal;color-interpolation:sRGB;color-interpolation-filters:linearRGB;solid-color:#000000;solid-opacity:1;fill:#000000;fill-opacity:1;fill-rule:evenodd;stroke:none;stroke-width:1px;stroke-linecap:round;stroke-linejoin:round;stroke-miterlimit:4;stroke-dasharray:none;stroke-dashoffset:0;stroke-opacity:1;color-rendering:auto;image-rendering:auto;shape-rendering:auto;text-rendering:auto;enable-background:accumulate" d="m 6.49389,1028.3192 a 0.50001384,0.50004997 0 0 0 -0.49215,0.5078 l 0,1.0333 a 0.50001384,0.50004997 0 1 0 0.99993,0 l 0,-1.0333 a 0.50001384,0.50004997 0 0 0 -0.50778,-0.5078 z" id="path48449-8" inkscape:connector-curvature="0"/>
    <path style="color:#000000;font-style:normal;font-variant:normal;font-weight:normal;font-stretch:normal;font-size:medium;line-height:normal;font-family:sans-serif;text-indent:0;text-align:start;text-decoration:none;text-decoration-line:none;text-decoration-style:solid;text-decoration-color:#000000;letter-spacing:normal;word-spacing:normal;text-transform:none;direction:ltr;writing-mode:lr-tb;baseline-shift:baseline;text-anchor:start;white-space:normal;clip-rule:nonzero;display:inline;overflow:visible;visibility:visible;opacity:1;isolation:auto;mix-blend-mode:normal;color-interpolation:sRGB;color-interpolation-filters:linearRGB;solid-color:#000000;solid-opacity:1;fill:#000000;fill-opacity:1;fill-rule:evenodd;stroke:none;stroke-width:1px;stroke-linecap:round;stroke-linejoin:round;stroke-miterlimit:4;stroke-dasharray:none;stroke-dashoffset:0;stroke-opacity:1;color-rendering:auto;image-rendering:auto;shape-rendering:auto;text-rendering:auto;enable-background:accumulate" d="m 5.46467,1029.0419 a 0.50001384,0.50004997 0 0 0 -0.10936,0.9785 l 0.9882,0.3184 a 0.50001384,0.50004997 0 1 0 0.30662,-0.9512 l -0.98821,-0.3203 a 0.50001384,0.50004997 0 0 0 -0.19725,-0.025 z" id="path48451-0" inkscape:connector-curvature="0"/>
    <path style="color:#000000;font-style:normal;font-variant:normal;font-weight:normal;font-stretch:normal;font-size:medium;line-height:normal;font-family:sans-serif;text-indent:0;text-align:start;text-decoration:none;text-decoration-line:none;text-decoration-style:solid;text-decoration-color:#000000;letter-spacing:normal;word-spacing:normal;text-transform:none;direction:ltr;writing-mode:lr-tb;baseline-shift:baseline;text-anchor:start;white-space:normal;clip-rule:nonzero;display:inline;overflow:visible;visibility:visible;opacity:1;isolation:auto;mix-blend-mode:normal;color-interpolation:sRGB;color-interpolation-filters:linearRGB;solid-color:#000000;solid-opacity:1;fill:#000000;fill-opacity:1;fill-rule:evenodd;stroke:none;stroke-width:1px;stroke-linecap:round;stroke-linejoin:round;stroke-miterlimit:4;stroke-dasharray:none;stroke-dashoffset:0;stroke-opacity:1;color-rendering:auto;image-rendering:auto;shape-rendering:auto;text-rendering:auto;enable-background:accumulate" d="m 6.51147,1029.3622 a 0.50001384,0.50004997 0 0 0 -0.41599,0.2109 l -0.61128,0.836 a 0.50001384,0.50004997 0 1 0 0.80658,0.5898 l 0.61128,-0.8359 a 0.50001384,0.50004997 0 0 0 -0.39059,-0.8008 z" id="path48453-2" inkscape:connector-curvature="0"/>
    <path style="color:#000000;font-style:normal;font-variant:normal;font-weight:normal;font-stretch:normal;font-size:medium;line-height:normal;font-family:sans-serif;text-indent:0;text-align:start;text-decoration:none;text-decoration-line:none;text-decoration-style:solid;text-decoration-color:#000000;letter-spacing:normal;word-spacing:normal;text-transform:none;direction:ltr;writing-mode:lr-tb;baseline-shift:baseline;text-anchor:start;white-space:normal;clip-rule:nonzero;display:inline;overflow:visible;visibility:visible;opacity:1;isolation:auto;mix-blend-mode:normal;color-interpolation:sRGB;color-interpolation-filters:linearRGB;solid-color:#000000;solid-opacity:1;fill:#000000;fill-opacity:1;fill-rule:evenodd;stroke:none;stroke-width:1px;stroke-linecap:round;stroke-linejoin:round;stroke-miterlimit:4;stroke-dasharray:none;stroke-dashoffset:0;stroke-opacity:1;color-rendering:auto;image-rendering:auto;shape-rendering:auto;text-rendering:auto;enable-background:accumulate" d="m 6.47826,1029.3642 a 0.50001384,0.50004997 0 0 0 -0.37692,0.7988 l 0.61129,0.8359 a 0.50001384,0.50004997 0 1 0 0.80658,-0.5898 l -0.61129,-0.836 a 0.50001384,0.50004997 0 0 0 -0.42966,-0.2089 z" id="path48455-3" inkscape:connector-curvature="0"/>
    <path style="color:#000000;font-style:normal;font-variant:normal;font-weight:normal;font-stretch:normal;font-size:medium;line-height:normal;font-family:sans-serif;text-indent:0;text-align:start;text-decoration:none;text-decoration-line:none;text-decoration-style:solid;text-decoration-color:#000000;letter-spacing:normal;word-spacing:normal;text-transform:none;direction:ltr;writing-mode:lr-tb;baseline-shift:baseline;text-anchor:start;white-space:normal;clip-rule:nonzero;display:inline;overflow:visible;visibility:visible;opacity:1;isolation:auto;mix-blend-mode:normal;color-interpolation:sRGB;color-interpolation-filters:linearRGB;solid-color:#000000;solid-opacity:1;fill:#000000;fill-opacity:1;fill-rule:evenodd;stroke:none;stroke-width:1px;stroke-linecap:round;stroke-linejoin:round;stroke-miterlimit:4;stroke-dasharray:none;stroke-dashoffset:0;stroke-opacity:1;color-rendering:auto;image-rendering:auto;shape-rendering:auto;text-rendering:auto;enable-background:accumulate" d="m 7.47233,1029.0419 a 0.50001384,0.50004997 0 0 0 -0.13085,0.025 l -0.98821,0.3203 a 0.50001384,0.50004997 0 1 0 0.30662,0.9512 l 0.98821,-0.3184 a 0.50001384,0.50004997 0 0 0 -0.17577,-0.9785 z" id="path48457-3" inkscape:connector-curvature="0"/>
  </g>

	<metadata>
		<rdf:RDF xmlns:rdf="http://www.w3.org/1999/02/22-rdf-syntax-ns#" xmlns:rdfs="http://www.w3.org/2000/01/rdf-schema#" xmlns:dc="http://purl.org/dc/elements/1.1/">
			<rdf:Description about="https://iconscout.com/legal#licenses" dc:title="beer-party-celebration-july 4-independence-day-pub-american" dc:description="beer-party-celebration-july 4-independence-day-pub-american" dc:publisher="Iconscout" dc:date="2017-06-10" dc:format="image/svg+xml" dc:language="en">
				<dc:creator>
					<rdf:Bag>
						<rdf:li>Vignesh Oviyan</rdf:li>
					</rdf:Bag>
				</dc:creator>
			</rdf:Description>
		</rdf:RDF>
    </metadata></svg>
