<svg xmlns="http://www.w3.org/2000/svg" data-name="Layer 1" viewBox="0 0 512 512"><path fill="#18171c" d="M512,160.12V115.5a7.5,7.5,0,0,0-6.56-7.44L259,.63a7.46,7.46,0,0,0-6,0L6.56,108.06A7.5,7.5,0,0,0,0,115.5v44.62a7.5,7.5,0,0,0,7.5,7.5H23.41a28.49,28.49,0,0,0,25.09,42,29,29,0,0,0,6.5-.75v228.8H51.5A15.51,15.51,0,0,0,36,453.17v15.76a4.32,4.32,0,0,0,0,.5H17.5a7.49,7.49,0,0,0-7,4.94l-10,27.57A7.5,7.5,0,0,0,7.5,512h497a7.5,7.5,0,0,0,7.05-10.06l-10-27.57a7.49,7.49,0,0,0-7.05-4.94H476a4.32,4.32,0,0,0,0-.5V453.17a15.51,15.51,0,0,0-15.5-15.5H457V208.87a29,29,0,0,0,6.5.75,28.49,28.49,0,0,0,25.09-42H504.5A7.5,7.5,0,0,0,512,160.12ZM256,15.68,467.75,108H44.25ZM48.5,194.62a13.5,13.5,0,0,1,0-27h81a13.5,13.5,0,1,1-13.5,13.5,7.5,7.5,0,0,0-15,0,28.41,28.41,0,0,0,7,18.68V437.67H70V199.8a28.41,28.41,0,0,0,7-18.68,7.5,7.5,0,0,0-15,0A13.51,13.51,0,0,1,48.5,194.62Zm106.09-27h35.82a28.49,28.49,0,0,0,25.09,42,29,29,0,0,0,6.5-.75v228.8h-3.5a15.51,15.51,0,0,0-15.5,15.5v15.76a4.32,4.32,0,0,0,0,.5H142a4.32,4.32,0,0,0,0-.5V453.17a15.51,15.51,0,0,0-15.5-15.5H123V208.87a29,29,0,0,0,6.5.75,28.49,28.49,0,0,0,25.09-42Zm167,0h35.82a28.49,28.49,0,0,0,25.09,42,29,29,0,0,0,6.5-.75v228.8h-3.5a15.51,15.51,0,0,0-15.5,15.5v15.76a4.32,4.32,0,0,0,0,.5H309a4.32,4.32,0,0,0,0-.5V453.17a15.51,15.51,0,0,0-15.5-15.5H290V208.87a29,29,0,0,0,6.5.75,28.49,28.49,0,0,0,25.09-42ZM294,469.43H218a4.32,4.32,0,0,0,0-.5V453.17a.5.5,0,0,1,.5-.5h75a.5.5,0,0,1,.5.5v15.76A4.32,4.32,0,0,0,294,469.43Zm2.47-274.81a13.51,13.51,0,0,1-13.5-13.5,7.5,7.5,0,0,0-15,0,28.41,28.41,0,0,0,7,18.68V437.67H237V199.8a28.41,28.41,0,0,0,7-18.68,7.5,7.5,0,0,0-15,0,13.5,13.5,0,1,1-13.5-13.5h81a13.5,13.5,0,0,1,0,27ZM51,468.93V453.17a.5.5,0,0,1,.5-.5h75a.5.5,0,0,1,.5.5v15.76a4.32,4.32,0,0,0,0,.5H51A4.32,4.32,0,0,0,51,468.93Zm438.24,15.5L493.8,497H18.2l4.56-12.57ZM460.5,452.67a.5.5,0,0,1,.5.5v15.76a4.32,4.32,0,0,0,0,.5H385a4.32,4.32,0,0,0,0-.5V453.17a.5.5,0,0,1,.5-.5Zm3-258a13.51,13.51,0,0,1-13.5-13.5,7.5,7.5,0,0,0-15,0,28.41,28.41,0,0,0,7,18.68V437.67H404V199.8a28.41,28.41,0,0,0,7-18.68,7.5,7.5,0,0,0-15,0,13.5,13.5,0,1,1-13.5-13.5h81a13.5,13.5,0,0,1,0,27Zm33.5-42H15V123H497ZM256,35a30,30,0,1,0,30,30A30,30,0,0,0,256,35Zm0,45a15,15,0,1,1,15-15A15,15,0,0,1,256,80Z"/></svg>