<svg xmlns="http://www.w3.org/2000/svg" data-name="Layer 1" viewBox="0 0 512 512"><path fill="#18171c" d="M146.54,126.57a7.49,7.49,0,0,0-2.88,10.21L158,162.31a7.5,7.5,0,0,0,6.55,3.84,7.41,7.41,0,0,0,3.65-1A7.49,7.49,0,0,0,171,155l-14.29-25.53A7.5,7.5,0,0,0,146.54,126.57Zm282,39.58a7.41,7.41,0,0,0,3.65-1A7.49,7.49,0,0,0,435,155l-14.29-25.53a7.5,7.5,0,1,0-13.09,7.33L422,162.31A7.5,7.5,0,0,0,428.51,166.15Zm-83.67-1a7.48,7.48,0,0,0,10.2-2.88l14.3-25.53a7.5,7.5,0,0,0-13.09-7.33L342,155A7.49,7.49,0,0,0,344.84,165.19ZM92.25,129.45,78,155A7.5,7.5,0,1,0,91,162.31l14.3-25.53a7.5,7.5,0,0,0-13.09-7.33ZM504.5,497H497V452.5a30.55,30.55,0,0,0-22.5-29.43V46.75a46.75,46.75,0,0,0-93.5,0A39.57,39.57,0,0,0,349,85.5v21a7.5,7.5,0,0,0,7.5,7.5h64a7.5,7.5,0,0,0,7.5-7.5v-21a39.56,39.56,0,0,0-32-38.78,31.75,31.75,0,0,1,63.5,0V422.82A30.55,30.55,0,0,0,436,452.5V497H405V471h9.5a7.5,7.5,0,0,0,7.5-7.5v-30a7.5,7.5,0,0,0-7.5-7.5H382.92V413.05H394.4a7.5,7.5,0,0,0,7.5-7.5V363.88a7.5,7.5,0,0,0-7.5-7.5H382.92v-15H394.4a7.5,7.5,0,0,0,7.5-7.5V292.22a7.49,7.49,0,0,0-7.5-7.5H382.92v-16.2a7.5,7.5,0,0,0-7.5-7.5H347.67a7.5,7.5,0,0,0-7.5,7.5v16.2H172.29v-16.2a7.5,7.5,0,0,0-7.5-7.5H137a7.5,7.5,0,0,0-7.5,7.5v16.2H117.6a7.49,7.49,0,0,0-7.5,7.5v41.66a7.5,7.5,0,0,0,7.5,7.5h11.94v15H117.6a7.5,7.5,0,0,0-7.5,7.5v41.67a7.5,7.5,0,0,0,7.5,7.5h11.94V426h-32a7.5,7.5,0,0,0-7.5,7.5v30a7.5,7.5,0,0,0,7.5,7.5H110v26H77V452.5a30.55,30.55,0,0,0-23.5-29.68V46.75a31.75,31.75,0,0,1,63.5,0A39.56,39.56,0,0,0,85,85.5v21a7.5,7.5,0,0,0,7.5,7.5h64a7.5,7.5,0,0,0,7.5-7.5v-21a39.57,39.57,0,0,0-32-38.78,46.75,46.75,0,0,0-93.5,0V423.07A30.55,30.55,0,0,0,16,452.5V497H7.5a7.5,7.5,0,0,0,0,15h497a7.5,7.5,0,0,0,0-15ZM413,85.5V99H364V85.5a24.5,24.5,0,0,1,49,0ZM124.5,61A24.53,24.53,0,0,1,149,85.5V99H100V85.5A24.53,24.53,0,0,1,124.5,61ZM62,497H31V452.5a15.5,15.5,0,0,1,31,0ZM355.17,276h12.75v8.7H355.17Zm-210.63,0h12.75v8.7H144.54ZM125.1,326.38V299.72H386.9v26.66H125.1Zm242.82,15v15H355.17v-15Zm-27.75,0v15H172.29v-15Zm-182.88,0v15H144.54v-15ZM125.1,398.05V371.38H386.9v26.67Zm242.82,15V426H355.17V413.05Zm-27.75,0V426H172.29V413.05Zm-182.88,0V426H144.54V413.05ZM105,456V441H407v15Zm35,41H125V471h15Zm220,0H155V471H360Zm30,0H375V471h15Zm92,0H451V452.5a15.5,15.5,0,0,1,31,0ZM116.85,138.58v31.66a7.5,7.5,0,0,0,15,0V138.58a7.5,7.5,0,0,0-15,0Zm271.8,39.16a7.5,7.5,0,0,0,7.5-7.5V138.58a7.5,7.5,0,0,0-15,0v31.66A7.5,7.5,0,0,0,388.65,177.74Z"/></svg>